<svg width="27" height="30" viewBox="0 0 27 30" fill="none" xmlns="http://www.w3.org/2000/svg">
<g clip-path="url(#clip0_64_34)">
<path d="M25.4644 23.9813C25.6788 23.7957 25.8497 23.5554 25.9626 23.2807C26.0755 23.006 26.127 22.7051 26.1128 22.4036C26.0985 22.102 26.0189 21.8088 25.8808 21.5487C25.7426 21.2887 25.55 21.0696 25.3193 20.91L25.3125 9.99375L23.625 11.25V20.9062C23.3969 21.0657 23.2065 21.2835 23.0696 21.5415C22.9327 21.7994 22.8534 22.09 22.8382 22.3889C22.823 22.6879 22.8724 22.9865 22.9823 23.26C23.0921 23.5334 23.2593 23.7736 23.4697 23.9606L22.8319 24.9019C22.2646 25.7038 21.9503 26.6907 21.9375 27.7106V30.0019H23.3128C23.6432 30.0018 23.9641 29.8794 24.2249 29.6539C24.4856 29.4284 24.6712 29.1127 24.7523 28.7569L25.3108 26.2519V30.0019H26.9983V27.7331C26.9854 26.708 26.6687 25.7162 26.0972 24.9113L25.4644 23.9813ZM13.5 0L0 7.5L13.5 16.875L27 7.5L13.5 0Z" fill="white"/>
<path d="M13.5 18.75L5.0625 12.5062V15.7125C5.0625 17.4187 10.0238 22.5 13.5 22.5C16.9762 22.5 21.9375 17.4187 21.9375 15.7125V12.5062L13.5 18.75Z" fill="white"/>
</g>
<defs>
<clipPath id="clip0_64_34">
<rect width="27" height="30" fill="white"/>
</clipPath>
</defs>
</svg>
