<svg width="24" height="21" viewBox="0 0 24 21" fill="none" xmlns="http://www.w3.org/2000/svg">
<path d="M22.6691 0.264709V2.68138H0.919067V0.264709H22.6691ZM0.919067 14.7647H11.7941V12.348H0.919067V14.7647ZM0.919067 8.72304H22.6691V6.30638H0.919067V8.72304ZM19.0441 11.1397C19.685 11.1397 20.2997 11.3943 20.7529 11.8475C21.2061 12.3007 21.4607 12.9154 21.4607 13.5564C21.4607 14.1973 21.2061 14.812 20.7529 15.2652C20.2997 15.7184 19.685 15.973 19.0441 15.973C17.7028 15.973 16.6274 14.8976 16.6274 13.5564C16.6274 12.2151 17.7149 11.1397 19.0441 11.1397ZM14.2107 20.8064V19.598C14.2107 18.2689 16.3736 17.1814 19.0441 17.1814C21.7145 17.1814 23.8774 18.2689 23.8774 19.598V20.8064H14.2107Z" fill="white"/>
</svg>
